<?xml version="1.0" encoding="utf-8"?>
<svg xmlns="http://www.w3.org/2000/svg" viewBox="-5.163 -5.957 470.215 174.345">
  <g id="Layer_2" style="" transform="matrix(0.492153, 0, 0, 0.492153, 147.915924, -1.654107)">
    <path class="st1" d="M -29.83 238.255 C -36.85 247.195 -43.79 254.905 -50.82 261.505 C -64.8 274.615 -79.11 283.275 -95.05 288.225 C -106.52 291.795 -118.82 293.435 -132.44 293.435 C -134.74 293.435 -137.02 293.375 -139.28 293.255 C -139.28 293.255 -139.28 293.255 -139.28 293.255 C -155.02 292.445 -169.92 288.835 -183.51 282.915 C -200.67 275.445 -215.74 264.295 -227.74 250.455 C -246.62 228.695 -257.93 200.285 -257.93 169.065 C -257.93 98.895 -203.74 44.135 -134.14 44.135 C -90.93 44.135 -54.71 63.585 -30.6 99.695 L 4.84 75.995 C -25.36 31.835 -76.01 5.345 -133.57 5.345 C -227.13 5.345 -300.72 77.225 -300.72 167.935 C -300.72 225.575 -272.23 274.885 -227.74 304.035 C -214.34 312.825 -199.48 319.785 -183.51 324.585 C -169.54 328.795 -154.72 331.345 -139.28 332.035 C -136.45 332.165 -133.6 332.225 -130.73 332.225 C -118.33 332.225 -106.44 331.185 -95.05 329.015 C -79.36 326.015 -64.62 320.845 -50.82 313.205 C -30.16 301.775 -11.62 284.845 4.85 261.425 L -29.82 238.245 L -29.83 238.255 Z" style="fill: rgb(23, 28, 91); stroke-width: 1;"/>
    <path class="st2" d="M -50.83 113.155 L -50.83 313.215 C -64.63 320.845 -79.37 326.015 -95.06 329.025 L -95.06 142.875 L -50.83 113.165 L -50.83 113.155 Z" style="fill: rgb(168, 215, 252); stroke-width: 1;"/>
    <path class="st3" d="M -95.06 142.865 L -95.06 329.015 C -106.45 331.185 -118.34 332.225 -130.74 332.225 C -133.61 332.225 -136.46 332.165 -139.29 332.035 L -139.29 113.155 L -95.06 142.865 L -95.06 142.865 Z" style="fill: rgb(13, 177, 249); stroke-width: 1;"/>
    <polygon class="st0" points="-139.29 113.155 -95.06 83.785 -50.83 113.155 -95.06 142.865 -139.29 113.155" style="fill: rgb(56, 56, 224); stroke-width: 1;"/>
    <path class="st2" d="M -139.3 186.175 L -139.3 332.035 C -154.74 331.345 -169.56 328.795 -183.53 324.585 L -183.53 215.885 L -139.3 186.175 L -139.3 186.175 Z" style="fill: rgb(168, 215, 252); stroke-width: 1;"/>
    <path class="st3" d="M -183.53 215.885 L -183.53 324.585 C -199.5 319.785 -214.36 312.825 -227.76 304.035 L -227.76 186.185 L -183.53 215.895 L -183.53 215.885 Z" style="fill: rgb(13, 177, 249); stroke-width: 1;"/>
    <polygon class="st0" points="-227.76 186.175 -183.53 156.805 -139.3 186.175 -183.53 215.895 -227.76 186.175" style="fill: rgb(56, 56, 224); stroke-width: 1;"/>
    <g transform="matrix(1, 0, 0, 1, -1084.000244, -531.215149)">
      <path class="st1" d="M1181.08,686.97c-6.27,0-12.07-1.14-17.39-3.4-5.32-2.27-9.97-5.45-13.93-9.53-3.96-4.09-7.02-8.83-9.16-14.24-2.15-5.4-3.22-11.2-3.22-17.39s1.07-11.99,3.22-17.39c2.15-5.4,5.2-10.13,9.16-14.17,3.96-4.04,8.6-7.22,13.93-9.53,5.32-2.31,11.12-3.47,17.39-3.47,7.01,0,13.08,1.16,18.2,3.47,5.12,2.31,9.66,5.45,13.62,9.41l-9.66,9.66c-2.56-2.8-5.68-4.99-9.35-6.56-3.67-1.57-7.94-2.35-12.81-2.35-4.29,0-8.21.74-11.76,2.23-3.55,1.49-6.62,3.61-9.22,6.38-2.6,2.77-4.6,6.05-6,9.84-1.4,3.8-2.1,7.97-2.1,12.5s.7,8.71,2.1,12.5c1.4,3.8,3.4,7.08,6,9.84,2.6,2.77,5.67,4.89,9.22,6.38,3.55,1.49,7.47,2.23,11.76,2.23,5.28,0,9.76-.8,13.43-2.41,3.67-1.61,6.79-3.82,9.35-6.62l9.66,9.66c-3.96,4.04-8.63,7.22-13.99,9.53-5.37,2.31-11.51,3.47-18.45,3.47Z" style="fill: rgb(23, 28, 91);"/>
      <path class="st1" d="M1232.46,685.73v-86.66h14.24v86.66h-14.24ZM1242.24,648.96v-11.76h21.91c4.37,0,7.78-1.13,10.21-3.4,2.43-2.27,3.65-5.43,3.65-9.47,0-3.63-1.2-6.68-3.59-9.16-2.39-2.48-5.78-3.71-10.15-3.71h-22.04v-12.38h22.65c5.45,0,10.23,1.09,14.36,3.28,4.13,2.19,7.32,5.16,9.59,8.91,2.27,3.76,3.4,8.03,3.4,12.81,0,5.03-1.14,9.41-3.4,13.12-2.27,3.71-5.47,6.6-9.59,8.67-4.13,2.06-8.91,3.1-14.36,3.1h-22.65ZM1279.99,685.73l-30.33-37.63,13.25-4.83,35.03,42.46h-17.95Z" style="fill: rgb(23, 28, 91);"/>
      <path class="st1" d="M1308.5,685.73l35.65-86.66h9.9l35.41,86.66h-15.35l-27.73-70.19h5.2l-27.98,70.19h-15.1ZM1326.07,669.01v-12.38h45.93v12.38h-45.93Z" style="fill: rgb(23, 28, 91);"/>
      <path class="st1" d="M1403.04,685.73v-86.66h14.24v86.66h-14.24ZM1412.82,612.07v-13h46.18v13h-46.18ZM1412.82,648.59v-13h44.07v13h-44.07Z" style="fill: rgb(23, 28, 91);"/>
      <path class="st1" d="M1474.13,612.07v-13h70.69v13h-70.69ZM1502.36,685.73v-84.18h14.24v84.18h-14.24Z" style="fill: rgb(23, 28, 91);"/>
      <path class="st1" d="M1561.39,685.73v-86.66h14.24v86.66h-14.24ZM1571.17,612.07v-13h47.91v13h-47.91ZM1571.17,647.72v-12.5h44.32v12.5h-44.32ZM1571.17,685.73v-13h48.53v13h-48.53Z" style="fill: rgb(23, 28, 91);"/>
      <path class="st1" d="M1639.62,685.73v-86.66h14.24v86.66h-14.24ZM1649.39,685.73v-13h22.78c5.94,0,11.16-1.28,15.66-3.84,4.5-2.56,8-6.13,10.52-10.71,2.52-4.58,3.78-9.88,3.78-15.91s-1.28-11.18-3.84-15.72c-2.56-4.54-6.09-8.09-10.58-10.65-4.5-2.56-9.68-3.84-15.54-3.84h-22.78v-13h23.15c6.27,0,12.09,1.09,17.45,3.28,5.36,2.19,10.05,5.24,14.05,9.16,4,3.92,7.12,8.5,9.35,13.74,2.23,5.24,3.34,10.96,3.34,17.15s-1.11,11.8-3.34,17.08c-2.23,5.28-5.32,9.88-9.28,13.8-3.96,3.92-8.62,6.97-13.99,9.16-5.37,2.19-11.14,3.28-17.33,3.28h-23.4Z" style="fill: rgb(23, 28, 91);"/>
      <path class="st3" d="M1141.72,806.62v-86.66h14.24v86.66h-14.24ZM1151.5,732.96v-13h46.18v13h-46.18ZM1151.5,769.48v-13h44.07v13h-44.07Z" style="fill: rgb(13, 177, 249);"/>
      <path class="st3" d="M1221.84,806.62v-86.66h14.24v86.66h-14.24Z" style="fill: rgb(13, 177, 249);"/>
      <path class="st3" d="M1260.25,806.62v-86.66h9.9l4.33,16.34v70.31h-14.24ZM1320.29,806.62l-51.87-67.72,1.73-18.94,51.87,67.72-1.73,18.94ZM1320.29,806.62l-4.33-15.23v-71.43h14.24v86.66h-9.9Z" style="fill: rgb(13, 177, 249);"/>
      <path class="st3" d="M1354.36,806.62l35.65-86.66h9.9l35.41,86.66h-15.35l-27.73-70.19h5.2l-27.98,70.19h-15.1ZM1371.94,789.91v-12.38h45.93v12.38h-45.93Z" style="fill: rgb(13, 177, 249);"/>
      <path class="st3" d="M1459.5,806.62v-86.66h9.9l4.33,16.34v70.31h-14.24ZM1519.54,806.62l-51.87-67.72,1.73-18.94,51.87,67.72-1.73,18.94ZM1519.54,806.62l-4.33-15.23v-71.43h14.24v86.66h-9.9Z" style="fill: rgb(13, 177, 249);"/>
      <path class="st3" d="M1597.31,807.86c-6.27,0-12.07-1.14-17.39-3.4s-9.97-5.45-13.93-9.53c-3.96-4.09-7.02-8.83-9.16-14.24-2.15-5.4-3.22-11.2-3.22-17.39s1.07-11.99,3.22-17.39c2.15-5.4,5.2-10.13,9.16-14.17,3.96-4.04,8.6-7.22,13.93-9.53,5.32-2.31,11.12-3.47,17.39-3.47,7.01,0,13.08,1.16,18.2,3.47,5.12,2.31,9.66,5.45,13.62,9.41l-9.66,9.66c-2.56-2.8-5.68-4.99-9.35-6.56-3.67-1.57-7.94-2.35-12.81-2.35-4.29,0-8.21.74-11.76,2.23-3.55,1.49-6.62,3.61-9.22,6.38-2.6,2.77-4.6,6.05-6,9.84-1.4,3.8-2.1,7.97-2.1,12.5s.7,8.71,2.1,12.5c1.4,3.8,3.4,7.08,6,9.84,2.6,2.77,5.67,4.89,9.22,6.38,3.55,1.49,7.47,2.23,11.76,2.23,5.28,0,9.76-.8,13.43-2.41,3.67-1.61,6.79-3.82,9.35-6.62l9.66,9.66c-3.96,4.04-8.63,7.22-13.99,9.53-5.37,2.31-11.51,3.47-18.45,3.47Z" style="fill: rgb(13, 177, 249);"/>
      <path class="st3" d="M1653.91,806.62v-86.66h14.24v86.66h-14.24ZM1663.69,732.96v-13h47.91v13h-47.91ZM1663.69,768.62v-12.5h44.32v12.5h-44.32ZM1663.69,806.62v-13h48.53v13h-48.53Z" style="fill: rgb(13, 177, 249);"/>
    </g>
  </g>
</svg>