<?xml version="1.0" encoding="UTF-8"?>
<svg id="Layer_2" xmlns="http://www.w3.org/2000/svg" version="1.1" viewBox="0 0 2500 1400">
  <!-- Generator: Adobe Illustrator 29.3.1, SVG Export Plug-In . SVG Version: 2.1.0 Build 151)  -->
  <defs>
    <style>
      .st0 {
        fill: transparent;
      }

      .st1 {
        fill: transparent;
      }

      .st2 {
        fill: #a8d7fc;
      }

      .st3 {
        fill: #fff;
      }

      .st4 {
        fill: #0db1f9;
      }
    </style>
  </defs>
  <rect class="st1" width="2500" height="1400"/>
  <g>
    <path class="st3" d="M1054.17,769.47c-7.02,8.94-13.96,16.65-20.99,23.25-13.98,13.11-28.29,21.77-44.23,26.72-11.47,3.57-23.77,5.21-37.39,5.21-2.3,0-4.58-.06-6.84-.18t0,0c-15.74-.81-30.64-4.42-44.23-10.34-17.16-7.47-32.23-18.62-44.23-32.46-18.88-21.76-30.19-50.17-30.19-81.39,0-70.17,54.19-124.93,123.79-124.93,43.21,0,79.43,19.45,103.54,55.56l35.44-23.7c-30.2-44.16-80.85-70.65-138.41-70.65-93.56,0-167.15,71.88-167.15,162.59,0,57.64,28.49,106.95,72.98,136.1,13.4,8.79,28.26,15.75,44.23,20.55,13.97,4.21,28.79,6.76,44.23,7.45h0c2.83.13,5.68.19,8.55.19,12.4,0,24.29-1.04,35.68-3.21,15.69-3,30.43-8.17,44.23-15.81,20.66-11.43,39.2-28.36,55.67-51.78l-34.67-23.18Z"/>
    <path class="st2" d="M1033.17,644.37v200.06c-13.8,7.63-28.54,12.8-44.23,15.81v-186.15l44.23-29.71Z"/>
    <path class="st4" d="M988.94,674.08v186.15c-11.39,2.17-23.28,3.21-35.68,3.21-2.87,0-5.72-.06-8.55-.19v-218.88l44.23,29.71Z"/>
    <polygon class="st0" points="944.71 644.37 988.94 615 1033.17 644.37 988.94 674.08 944.71 644.37"/>
    <path class="st2" d="M944.7,717.39v145.86c-15.44-.69-30.26-3.24-44.23-7.45v-108.7l44.23-29.71Z"/>
    <path class="st4" d="M900.47,747.1v108.7c-15.97-4.8-30.83-11.76-44.23-20.55v-117.85l44.23,29.71Z"/>
    <polygon class="st0" points="856.24 717.39 900.47 688.02 944.7 717.39 900.47 747.11 856.24 717.39"/>
    <g>
      <path class="st3" d="M1181.08,686.97c-6.27,0-12.07-1.14-17.39-3.4-5.32-2.27-9.97-5.45-13.93-9.53-3.96-4.09-7.02-8.83-9.16-14.24-2.15-5.4-3.22-11.2-3.22-17.39s1.07-11.99,3.22-17.39c2.15-5.4,5.2-10.13,9.16-14.17,3.96-4.04,8.6-7.22,13.93-9.53,5.32-2.31,11.12-3.47,17.39-3.47,7.01,0,13.08,1.16,18.2,3.47,5.12,2.31,9.66,5.45,13.62,9.41l-9.66,9.66c-2.56-2.8-5.68-4.99-9.35-6.56-3.67-1.57-7.94-2.35-12.81-2.35-4.29,0-8.21.74-11.76,2.23-3.55,1.49-6.62,3.61-9.22,6.38-2.6,2.77-4.6,6.05-6,9.84-1.4,3.8-2.1,7.97-2.1,12.5s.7,8.71,2.1,12.5c1.4,3.8,3.4,7.08,6,9.84,2.6,2.77,5.67,4.89,9.22,6.38,3.55,1.49,7.47,2.23,11.76,2.23,5.28,0,9.76-.8,13.43-2.41,3.67-1.61,6.79-3.82,9.35-6.62l9.66,9.66c-3.96,4.04-8.63,7.22-13.99,9.53-5.37,2.31-11.51,3.47-18.45,3.47Z"/>
      <path class="st3" d="M1232.46,685.73v-86.66h14.24v86.66h-14.24ZM1242.24,648.96v-11.76h21.91c4.37,0,7.78-1.13,10.21-3.4,2.43-2.27,3.65-5.43,3.65-9.47,0-3.63-1.2-6.68-3.59-9.16-2.39-2.48-5.78-3.71-10.15-3.71h-22.04v-12.38h22.65c5.45,0,10.23,1.09,14.36,3.28,4.13,2.19,7.32,5.16,9.59,8.91,2.27,3.76,3.4,8.03,3.4,12.81,0,5.03-1.14,9.41-3.4,13.12-2.27,3.71-5.47,6.6-9.59,8.67-4.13,2.06-8.91,3.1-14.36,3.1h-22.65ZM1279.99,685.73l-30.33-37.63,13.25-4.83,35.03,42.46h-17.95Z"/>
      <path class="st3" d="M1308.5,685.73l35.65-86.66h9.9l35.41,86.66h-15.35l-27.73-70.19h5.2l-27.98,70.19h-15.1ZM1326.07,669.01v-12.38h45.93v12.38h-45.93Z"/>
      <path class="st3" d="M1403.04,685.73v-86.66h14.24v86.66h-14.24ZM1412.82,612.07v-13h46.18v13h-46.18ZM1412.82,648.59v-13h44.07v13h-44.07Z"/>
      <path class="st3" d="M1474.13,612.07v-13h70.69v13h-70.69ZM1502.36,685.73v-84.18h14.24v84.18h-14.24Z"/>
      <path class="st3" d="M1561.39,685.73v-86.66h14.24v86.66h-14.24ZM1571.17,612.07v-13h47.91v13h-47.91ZM1571.17,647.72v-12.5h44.32v12.5h-44.32ZM1571.17,685.73v-13h48.53v13h-48.53Z"/>
      <path class="st3" d="M1639.62,685.73v-86.66h14.24v86.66h-14.24ZM1649.39,685.73v-13h22.78c5.94,0,11.16-1.28,15.66-3.84,4.5-2.56,8-6.13,10.52-10.71,2.52-4.58,3.78-9.88,3.78-15.91s-1.28-11.18-3.84-15.72c-2.56-4.54-6.09-8.09-10.58-10.65-4.5-2.56-9.68-3.84-15.54-3.84h-22.78v-13h23.15c6.27,0,12.09,1.09,17.45,3.28,5.36,2.19,10.05,5.24,14.05,9.16,4,3.92,7.12,8.5,9.35,13.74,2.23,5.24,3.34,10.96,3.34,17.15s-1.11,11.8-3.34,17.08c-2.23,5.28-5.32,9.88-9.28,13.8-3.96,3.92-8.62,6.97-13.99,9.16-5.37,2.19-11.14,3.28-17.33,3.28h-23.4Z"/>
      <path class="st4" d="M1141.72,806.62v-86.66h14.24v86.66h-14.24ZM1151.5,732.96v-13h46.18v13h-46.18ZM1151.5,769.48v-13h44.07v13h-44.07Z"/>
      <path class="st4" d="M1221.84,806.62v-86.66h14.24v86.66h-14.24Z"/>
      <path class="st4" d="M1260.25,806.62v-86.66h9.9l4.33,16.34v70.31h-14.24ZM1320.29,806.62l-51.87-67.72,1.73-18.94,51.87,67.72-1.73,18.94ZM1320.29,806.62l-4.33-15.23v-71.43h14.24v86.66h-9.9Z"/>
      <path class="st4" d="M1354.36,806.62l35.65-86.66h9.9l35.41,86.66h-15.35l-27.73-70.19h5.2l-27.98,70.19h-15.1ZM1371.94,789.91v-12.38h45.93v12.38h-45.93Z"/>
      <path class="st4" d="M1459.5,806.62v-86.66h9.9l4.33,16.34v70.31h-14.24ZM1519.54,806.62l-51.87-67.72,1.73-18.94,51.87,67.72-1.73,18.94ZM1519.54,806.62l-4.33-15.23v-71.43h14.24v86.66h-9.9Z"/>
      <path class="st4" d="M1597.31,807.86c-6.27,0-12.07-1.14-17.39-3.4-5.32-2.27-9.97-5.45-13.93-9.53-3.96-4.09-7.02-8.83-9.16-14.24-2.15-5.4-3.22-11.2-3.22-17.39s1.07-11.99,3.22-17.39c2.15-5.4,5.2-10.13,9.16-14.17,3.96-4.04,8.6-7.22,13.93-9.53,5.32-2.31,11.12-3.47,17.39-3.47,7.01,0,13.08,1.16,18.2,3.47,5.12,2.31,9.66,5.45,13.62,9.41l-9.66,9.66c-2.56-2.8-5.68-4.99-9.35-6.56-3.67-1.57-7.94-2.35-12.81-2.35-4.29,0-8.21.74-11.76,2.23-3.55,1.49-6.62,3.61-9.22,6.38-2.6,2.77-4.6,6.05-6,9.84-1.4,3.8-2.1,7.97-2.1,12.5s.7,8.71,2.1,12.5c1.4,3.8,3.4,7.08,6,9.84,2.6,2.77,5.67,4.89,9.22,6.38,3.55,1.49,7.47,2.23,11.76,2.23,5.28,0,9.76-.8,13.43-2.41,3.67-1.61,6.79-3.82,9.35-6.62l9.66,9.66c-3.96,4.04-8.63,7.22-13.99,9.53-5.37,2.31-11.51,3.47-18.45,3.47Z"/>
      <path class="st4" d="M1653.91,806.62v-86.66h14.24v86.66h-14.24ZM1663.69,732.96v-13h47.91v13h-47.91ZM1663.69,768.62v-12.5h44.32v12.5h-44.32ZM1663.69,806.62v-13h48.53v13h-48.53Z"/>
    </g>
  </g>
</svg>