<?xml version="1.0" encoding="UTF-8"?>
<svg id="Layer_2" data-name="Layer 2" xmlns="http://www.w3.org/2000/svg" viewBox="0 0 2528.4 1440">
  <defs>
    <style>
      .cls-1 {
        font-family: SolitasSerif-CondBold, 'Solitas Serif';
        font-size: 59px;
        font-weight: 700;
      }

      .cls-2 {
        fill: #d8b556;
      }

      .cls-3 {
        letter-spacing: .26em;
      }

      .cls-4 {
        letter-spacing: .24em;
      }

      .cls-5 {
        letter-spacing: .18em;
      }

      .cls-6 {
        letter-spacing: .2em;
      }

      .cls-7 {
        letter-spacing: .22em;
      }

      .cls-8 {
        letter-spacing: .18em;
      }

      .cls-9 {
        letter-spacing: .18em;
      }

      .cls-10 {
        fill: #edc14d;
      }
    </style>
  </defs>
  <g>
    <path class="cls-2" d="M1359.93,320.66l-6.52,15.65c52.62,23.67,89.27,76.56,89.27,138,0,1.32-.02,2.63-.05,3.93h-73.14s.48-.4,1.37-.62c.88-.22,34.67-6.37,34.67-6.37v-66.82c-4.85-6.44-20.47-15.09-40.32-17.74-19.85-2.64-35.29,3.03-38.09,4.42-2.79,1.38-4.26,1.61-4.26,1.61,0,0,.75-.64,4.01-4.84,3.27-4.19,9.4-7.22,9.4-7.22v-64.69s.79,1.33,1.15,2.08c.35.75,3.79,11.82,3.79,11.82l4.71-14.74,1.41-4.41h-111.76l1.41,4.41,4.71,14.74s3.44-11.07,3.79-11.82c.36-.75,1.15-2.08,1.15-2.08v64.69s6.13,3.03,9.4,7.22c3.26,4.2,4.01,4.84,4.01,4.84,0,0-1.47-.23-4.26-1.61-2.8-1.39-18.24-7.06-38.09-4.42-19.85,2.65-35.47,11.3-40.32,17.74v66.82s33.79,6.15,34.67,6.37c.89.22,1.37.62,1.37.62h-73.14c-.03-1.3-.05-2.61-.05-3.93,0-61.44,36.65-114.33,89.27-138l-6.52-15.65c-58.73,26.27-99.75,85.26-99.75,153.65,0,92.77,75.47,168.24,168.23,168.24s168.23-75.47,168.23-168.24c0-68.39-41.02-127.38-99.75-153.65ZM1368.67,419.09h7.19v18.37h-7.19v-18.37ZM1307.5,325.28h9.22v15.72h-9.22v-15.72ZM1306.18,405.19h9.86v20.53h-9.86v-20.53ZM1302.83,456.9h4.85v15.56h-4.85v-15.56ZM1289.48,326.81h3.94v11.8h-3.94v-11.8ZM1287.13,367.24h8.64v20.51h-8.64v-20.51ZM1280.07,456.9v15.56h-4.85v-15.56h4.85ZM1276.72,425.72h-9.86v-20.53h9.86v20.53ZM1266.18,325.28h9.22v15.72h-9.22v-15.72ZM1207.04,437.46v-18.37h7.19v18.37h-7.19ZM1291.45,625.55c-44.71,0-84.89-19.4-112.57-50.25,0,0,57.69-6.4,90.69-22.99v-25.41c0-2.73.35-5.43,1.04-8.07,2.09-8,7.78-23.17,20.84-23.17s18.75,15.17,20.84,23.17c.69,2.64,1.04,5.34,1.04,8.07v25.41c33,16.59,90.69,22.99,90.69,22.99-27.68,30.85-67.86,50.25-112.57,50.25Z"/>
    <polygon class="cls-2" points="1431.3 293.66 1431.3 300.49 1377.03 300.49 1342.47 275.55 1307.77 275.55 1307.77 278.21 1331.71 303.69 1251.19 303.69 1275.13 278.21 1275.13 275.55 1244.68 275.55 1244.68 268.59 1277.93 268.59 1277.93 260.58 1275.13 260.58 1271.75 252.13 1311.15 252.13 1307.77 260.58 1304.97 260.58 1304.97 268.59 1345.49 268.59 1380.56 293.66 1431.3 293.66"/>
    <path class="cls-10" d="M1417.49,265.12c0,1.02-.11,2.01-.33,2.96l-4.3,19.23h-17.76l-4.3-19.23c-.22-.95-.33-1.94-.33-2.96,0-7.47,6.05-13.51,13.51-13.51s13.51,6.04,13.51,13.51Z"/>
  </g>
  <g>
    <path d="M975.5,511.61c-.75,0-1.14-.33-1.14-.99v-.11c0-.74.23-1.05,1.14-1.05h.16c.7,0,.97-.18,1.02-.89v-20.45c0-.89-.08-1.01-1.02-1.01h-.16c-.75,0-1.14-.33-1.14-.99v-.11c0-.74.23-1.05,1.14-1.05h15.91c.95,0,1.49.45,1.62,1.37l.44,3.45c.08.74-.19,1.1-.79,1.1h-.29c-.75,0-.97-.23-1.37-1.26l-.56-1.35c-.37-.89-.85-1.16-2.3-1.16h-5.63v9.95h2.82c.64,0,1.08-.25,1.33-.54.12-.13.27-.36.48-.7l.08-.13c.08-.81.5-1.23,1.28-1.21h.08c.6,0,.91.4.91,1.17v5.15c0,.79-.19,1.1-.87,1.1h-.08c-.75,0-1.03-.2-1.28-1.14l-.04-.14c-.06-1.14-.52-1.37-1.74-1.37h-2.98v7.7c0,1.1.16,1.81.48,2.08.33.29,1.14.43,2.46.43h2.38c1.06,0,1.8-.11,2.2-.33.41-.2.71-.61.93-1.23l.72-2.15c.25-.89.54-1.1,1.33-1.1h.33c.58,0,.81.36.7,1.1l-.58,3.88c-.1.79-.33,1.32-.66,1.57-.33.27-.91.4-1.72.4h-15.6Z"/>
    <path d="M1003.05,505.36c-.15-.81.19-1.23,1.04-1.23h.15c.43,0,.71.07.89.22.17.16.33.51.5,1.05l.15.6c.66,2.48,2.55,3.7,5.66,3.7,1.41,0,2.51-.33,3.34-.99.83-.65,1.24-1.5,1.24-2.57s-.35-1.9-1.06-2.64c-.72-.74-1.97-1.55-3.77-2.44l-2.09-1.03c-3.83-1.88-5.74-4.46-5.74-7.77,0-2.49.81-4.37,2.46-5.65,1.64-1.26,3.79-1.9,6.46-1.9,2.34,0,4.18.29,5.49.89.64.23,1.01.74,1.12,1.52l.5,3.38c.15.94-.08,1.25-.87,1.25h-.15c-.43,0-.72-.05-.87-.16-.15-.11-.31-.38-.48-.79l-.27-.67c-.5-1.23-1.1-2.06-1.8-2.49-.7-.43-1.74-.65-3.11-.65-2.47,0-4.04,1.32-4.04,3.43,0,.79.29,1.52.87,2.15.58.65,1.78,1.43,3.58,2.33l2.01,1.05c2.34,1.17,3.98,2.4,4.91,3.67.93,1.28,1.39,2.78,1.39,4.5,0,5.04-3.29,7.84-9.47,7.84-2.76,0-4.87-.33-6.28-.99-.56-.23-.91-.76-1.04-1.55l-.72-4.03Z"/>
    <path d="M1034.77,511.61c-.75,0-1.14-.34-1.16-1.03v-.11c0-.74.21-1.01,1.16-1.01h.15c.43,0,.7-.11.83-.31.13-.2.19-.65.19-1.35v-20.31h-2.38c-1,.07-1.64.45-1.93,1.14l-.56,1.37c-.23.54-.42.89-.56,1.03-.15.16-.41.23-.73.23h-.29c-.66,0-.93-.38-.83-1.12l.48-3.81c.1-.92.64-1.37,1.62-1.37h15.91c.99,0,1.53.45,1.62,1.37l.44,3.81c.08.74-.19,1.1-.79,1.12h-.29c-.7,0-.97-.23-1.37-1.26l-.56-1.37c-.29-.69-.93-1.07-1.89-1.14h-2.03v20.31c0,1.37.21,1.66.99,1.66h.13c.95,0,1.22.27,1.22,1.01v.11c0,.69-.41,1.03-1.22,1.03h-8.16Z"/>
    <path d="M1059.15,511.61c-.79,0-1.18-.33-1.18-.99v-.11c0-.69.39-1.03,1.18-1.05h.12c.79,0,1.03-.18,1.03-1.17v-20.16c0-.89-.08-1.01-1.03-1.01h-.12c-.79,0-1.18-.33-1.18-.99v-.11c0-.69.39-1.03,1.18-1.05h8.47c9.34,0,14.02,4.43,14.02,13.3,0,4.66-1.22,8.06-3.65,10.17s-5.78,3.18-10.03,3.18h-8.8ZM1066.15,508.25c0,.89.25,1.21,1.2,1.21h.56c5.12,0,7.67-3.72,7.67-11.18s-2.59-11.17-7.77-11.17h-.42c-.73,0-1.06.2-1.16.43-.1.22-.08.18-.08.38v20.32Z"/>
  </g>
  <g>
    <path d="M1523.77,497.22c-.82.95-1.61,1.77-2.33,2.45-.74.69-1.74,1.57-2.97,2.63-1.23,1.06-2.19,1.9-2.88,2.52-.43.4-.84.9-1.25,1.46-.41.57-.65,1.01-.67,1.28h7.22c1.04,0,1.76-.07,2.13-.24.37-.15.67-.48.9-.97l.69-1.46c.33-.71.76-1.08,1.29-1.08h.31c.86,0,1.02.26.92,1.12l-.72,4.79c-.25,1.48-.78,2.1-2.27,2.1h-13.35c-.86,0-1.29-.38-1.29-1.15,0-1.26.39-2.52,1.19-3.78.78-1.26,1.92-2.69,3.43-4.31.14-.15.63-.69,1.51-1.65.86-.95,1.41-1.57,1.64-1.85.21-.27.65-.8,1.27-1.61.62-.79,1.06-1.43,1.27-1.88.22-.46.43-1.02.67-1.7.21-.68.33-1.32.33-1.94,0-2.81-1.21-4.22-3.66-4.24-2.25,0-3.45.82-4.05,2.78l-.31,1.23c-.25,1.01-.65,1.21-1.45,1.21h-.16c-.71,0-.9-.27-.84-1.28l.16-3.89c.1-1.99,2.58-3.29,7.22-3.29,2.78,0,4.88.62,6.3,1.85,1.41,1.24,2.12,2.87,2.12,4.86,0,2.19-.74,4.15-2.37,6.05Z"/>
    <path d="M1557.37,506.05c-.45,1.22-1.02,2.28-1.7,3.14-1.39,1.75-3.7,2.96-6.66,2.96-3.68,0-6.36-1.7-7.69-4.48-1.33-2.76-1.88-5.65-1.88-9.14,0-2.8.23-5.21,1.15-7.75.45-1.26,1.04-2.36,1.72-3.25,1.39-1.81,3.78-3.07,6.7-3.07,3.62,0,6.32,1.79,7.67,4.64,1.33,2.85,1.88,5.9,1.88,9.43,0,2.76-.31,5.06-1.19,7.51ZM1549.03,509.96c2.45,0,3.68-3.86,3.68-11.57s-1.23-11.64-3.68-11.64-3.7,3.88-3.7,11.64,1.23,11.57,3.7,11.57Z"/>
    <path d="M1584.88,497.22c-.82.95-1.6,1.77-2.33,2.45-.74.69-1.74,1.57-2.98,2.63-1.23,1.06-2.19,1.9-2.88,2.52-.43.4-.84.9-1.25,1.46-.41.57-.65,1.01-.67,1.28h7.22c1.04,0,1.76-.07,2.13-.24.37-.15.66-.48.9-.97l.68-1.46c.33-.71.76-1.08,1.29-1.08h.31c.86,0,1.02.26.92,1.12l-.72,4.79c-.26,1.48-.78,2.1-2.27,2.1h-13.35c-.86,0-1.29-.38-1.29-1.15,0-1.26.39-2.52,1.2-3.78.78-1.26,1.92-2.69,3.43-4.31.14-.15.63-.69,1.51-1.65.86-.95,1.41-1.57,1.64-1.85.21-.27.64-.8,1.27-1.61.63-.79,1.06-1.43,1.27-1.88.21-.46.43-1.02.67-1.7.21-.68.33-1.32.33-1.94,0-2.81-1.21-4.22-3.66-4.24-2.25,0-3.45.82-4.05,2.78l-.31,1.23c-.25,1.01-.64,1.21-1.45,1.21h-.16c-.7,0-.9-.27-.84-1.28l.16-3.89c.1-1.99,2.58-3.29,7.22-3.29,2.78,0,4.88.62,6.3,1.85,1.41,1.24,2.11,2.87,2.11,4.86,0,2.19-.74,4.15-2.37,6.05Z"/>
    <path d="M1610.96,504.22c0-3.75-2.53-5.76-7.01-5.76h-1.76c-1.02,0-1.33-.38-1.18-1.54l1.29-10.49c.16-1.24.49-1.57,1.61-1.57h10.06c.82,0,1.25.46,1.31,1.39l.29,4.57c.06.9-.08,1.13-.76,1.13h-.53c-.53,0-.63-.13-1.04-1.13l-.28-.9c-.25-.71-.57-.8-1.53-.86h-6.93l-.76,5.69h2.04c7.14,0,10.83,3.22,10.83,8.92s-3.39,8.54-10.14,8.52c-4.11,0-6.13-.9-6.05-2.69l.16-3.33c.06-1.01.23-1.28.84-1.28h.16c.71,0,.94.16,1.33,1.21l.39,1.12c.35,1.01.78,1.68,1.27,2.05.49.38,1.18.57,2.06.57,2.6,0,4.33-1.96,4.33-5.61Z"/>
  </g>
  <path d="M1609.62,833.25c0-42.88,30.16-98.46,109.11-98.46,65.64,0,106.45,36.37,106.45,94.03s-41.99,102.9-109.11,102.9c-75.7,0-106.45-53.81-106.45-98.46ZM1786.44,837.98c0-55.59-33.41-89.89-75.4-89.89-28.98,0-62.98,15.38-62.98,77.47,0,51.75,29.57,92.55,78.65,92.55,18.33,0,59.73-8.58,59.73-80.13Z"/>
  <path d="M1867.17,739.22c.59-4.14,2.96-6.5,5.03-6.5,2.66,0,4.43,1.18,7.98,7.98l69.78,140.16,69.78-141.93c2.07-4.14,4.44-6.21,6.8-6.21,2.07,0,5.03,2.66,5.91,7.98l23.65,155.23c2.37,15.67,4.73,22.47,12.71,24.84,7.39,2.07,11.53,2.37,14.78,2.37,2.37,0,4.14.89,4.14,2.37,0,2.07-2.96,2.96-6.8,2.96-6.5,0-43.47-1.18-53.81-1.77-6.21-.3-7.69-1.48-7.69-2.96,0-1.18,1.18-2.07,2.96-2.66,1.48-.59,2.07-3.55,1.18-10.64l-14.49-108.81h-.89l-55.88,112.36c-5.91,11.83-7.39,14.19-10.35,14.19-3.25,0-6.21-5.03-10.35-12.71-6.21-11.53-26.91-49.97-29.86-57.07-2.07-4.73-17.45-36.37-26.02-53.81h-.89l-12.42,98.17c-.59,4.44-.89,7.69-.89,11.83,0,4.73,3.55,6.5,7.98,7.39,4.43.89,6.8,1.18,9.17,1.18s4.14,1.18,4.14,2.37c0,2.37-2.37,2.96-6.21,2.96-10.94,0-22.77-.89-27.5-.89-5.03,0-17.45.89-25.72.89-2.66,0-4.73-.59-4.73-2.96,0-1.18,1.48-2.37,4.14-2.37,2.07,0,3.84,0,7.98-.59,7.1-.89,9.46-10.94,10.64-19.22l25.72-164.11Z"/>
  <path d="M2165.33,865.18c-1.48,0-1.77.3-2.37,1.77l-13.9,33.71c-2.66,6.21-3.84,12.42-3.84,15.38,0,4.43,2.37,7.1,10.35,7.1h3.84c3.25,0,3.84,1.18,3.84,2.66,0,2.07-1.48,2.66-4.14,2.66-8.58,0-20.7-.89-28.98-.89-2.66,0-16.56.89-30.16.89-3.25,0-4.73-.59-4.73-2.66,0-1.48.89-2.66,2.96-2.66,2.37,0,5.32-.3,7.69-.3,11.83-1.77,16.26-9.46,21.58-22.18l68.01-158.19c2.96-7.1,5.03-10.05,7.69-10.05,3.84,0,5.03,2.37,7.69,7.98,6.21,13.9,49.67,116.8,66.23,154.94,10.05,22.77,17.45,26.02,22.18,26.91,3.84.59,6.8.89,9.76.89,2.37,0,3.55.89,3.55,2.66,0,2.07-1.48,2.66-11.24,2.66-9.17,0-28.09,0-49.97-.59-4.73-.3-7.69-.3-7.69-2.07,0-1.48.59-2.37,3.25-2.66,1.77-.3,3.55-2.66,2.37-5.62l-20.11-50.56c-.59-1.48-1.48-1.77-2.66-1.77h-61.21ZM2220.92,851.29c1.18,0,1.48-.59,1.18-1.48l-24.54-63.87c-.3-.89-.59-2.37-1.18-2.37-.89,0-1.18,1.48-1.48,2.37l-25.13,63.57c-.59,1.18,0,1.77.89,1.77h50.27Z"/>
  <path d="M457.33,833.25c0-42.88,30.16-98.46,109.11-98.46,65.64,0,106.45,36.37,106.45,94.03s-41.99,102.9-109.11,102.9c-75.7,0-106.45-53.81-106.45-98.46ZM634.14,837.98c0-55.59-33.41-89.89-75.4-89.89-28.98,0-62.98,15.38-62.98,77.47,0,51.75,29.57,92.55,78.65,92.55,18.33,0,59.73-8.58,59.73-80.13ZM520.6,701.38c0-5.62,4.14-13.6,13.6-13.6,7.69,0,13.9,4.73,13.9,12.71s-5.62,14.78-14.19,14.78c-9.46,0-13.31-7.69-13.31-13.9ZM582.99,701.38c0-5.91,4.14-13.9,13.6-13.9,7.69,0,13.9,4.73,13.9,13.01s-5.62,14.78-14.19,14.78c-9.46,0-13.3-7.69-13.3-13.9Z"/>
  <path d="M691.73,925.21c-4.14-1.77-5.03-2.96-5.03-8.58,0-13.6,1.18-29.27,1.48-33.41,0-3.84,1.18-6.5,3.25-6.5,2.37,0,2.66,2.37,2.66,4.14,0,3.25.89,8.57,2.37,13.01,5.62,18.63,25.13,24.84,41.4,24.84,22.47,0,36.07-14.19,36.07-31.93,0-10.94-2.66-21.88-25.72-35.48l-15.08-8.87c-30.75-18.04-40.8-34.89-40.8-57.07,0-30.75,29.57-50.56,65.64-50.56,16.85,0,30.16,2.37,36.96,4.14,2.37.59,3.55,1.48,3.55,3.25,0,3.25-.89,10.35-.89,30.16,0,5.32-1.18,7.98-3.25,7.98-1.77,0-2.66-1.48-2.66-4.44,0-2.37-1.18-10.05-6.8-16.56-3.84-4.73-12.12-11.83-28.98-11.83-18.63,0-35.48,9.76-35.48,26.91,0,11.24,4.14,20.11,27.5,33.12l10.64,5.91c34.3,18.92,44.94,38.14,44.94,60.91,0,18.63-7.1,33.71-26.02,47.01-12.42,8.87-29.57,10.35-43.47,10.35-15.08,0-31.05-1.48-42.28-6.5Z"/>
  <path d="M885.34,753.71l-36.83.89c-14.34.3-20.24,2.07-23.9,7.69-2.53,3.55-3.65,6.8-4.22,8.58-.56,2.07-1.12,3.25-2.81,3.25s-2.25-1.48-2.25-4.14c0-4.14,4.78-28.39,5.34-30.46.56-3.25,1.41-4.73,2.81-4.73,1.97,0,4.5,2.07,10.68,2.96,7.31.89,16.59,1.18,24.74,1.18h100.37c7.87,0,13.21-.59,16.87-1.18,3.94-.59,5.9-1.18,6.75-1.18,1.69,0,1.97,1.48,1.97,5.32,0,5.32-.56,23.95-.56,30.46-.28,2.66-.84,4.14-2.25,4.14-1.97,0-2.53-1.18-2.81-5.03l-.28-2.66c-.56-6.5-7.03-14.19-29.24-14.49l-31.21-.59v101.71c0,23.06.28,42.88,1.41,53.82.84,7.1,2.25,11.83,9.56,13.01,3.37.59,9,.89,12.65.89,2.81,0,3.94,1.48,3.94,2.66,0,1.77-1.97,2.66-4.78,2.66-16.31,0-32.89-.89-39.92-.89-5.62,0-22.49.89-32.33.89-3.09,0-4.78-.89-4.78-2.66,0-1.18.84-2.66,3.94-2.66,3.66,0,6.75-.3,8.72-.89,5.06-1.18,6.47-5.91,7.31-13.31,1.12-10.64,1.12-30.46,1.12-53.52v-101.71Z"/>
  <g>
    <path d="M1341.57,820.24c.59,0,1.48-.29,1.48-1.77v-5.32c0-38.14-.29-47.31-.59-55.29-.59-8.58-2.96-11.24-11.24-13.6-2.07-.59-6.5-.89-10.05-.89-2.96,0-4.44-.89-4.44-2.66s1.78-2.37,5.62-2.37c13.9,0,32.23.59,39.03.59,6.21,0,23.36-.59,33.41-.59,3.84,0,5.62.59,5.62,2.37s-1.77,2.66-4.73,2.66c-2.07,0-4.43.3-7.69.89-6.8,1.18-8.87,4.73-9.46,13.6-.59,7.98-.59,15.08-.59,53.22v44.35c0,23.06,0,42.88,1.18,53.82.89,7.1,2.37,11.83,10.35,13.01,3.55.59,9.17.89,13.31.89,2.66,0,4.14,1.48,4.14,2.66,0,1.77-2.07,2.66-5.32,2.66-16.85,0-34-.89-41.1-.89-5.91,0-24.25.89-34.3.89-3.55,0-5.62-.89-5.62-2.66,0-1.18,1.18-2.66,4.14-2.66,4.14,0,7.1-.3,9.46-.89,5.32-1.18,6.8-5.91,7.69-13.31,1.18-10.64,1.18-29.86,1.18-52.93v-19.22c0-.89-.89-1.48-1.48-1.48h-98.17c-.89,0-1.77.3-1.77,1.48v19.22c0,23.06.3,42.28,1.48,53.22.89,7.1,2.37,11.83,10.05,13.01,3.55.59,9.46.89,13.31.89,2.96,0,4.14,1.48,4.14,2.66,0,1.77-2.07,2.66-5.32,2.66-16.85,0-34.89-.89-42.28-.89-5.91,0-23.06.89-33.41.89-3.25,0-5.03-.89-5.03-2.66,0-1.18.89-2.66,4.14-2.66,3.84,0,6.8-.3,9.17-.89,5.32-1.18,6.8-5.91,7.69-13.31,1.18-10.64,1.18-30.46,1.18-53.52v-44.35c0-38.14,0-45.24-.3-53.22-.59-8.58-2.96-11.24-11.24-13.6-2.07-.59-6.51-.89-10.35-.89-2.66,0-4.44-.89-4.44-2.66s2.07-2.37,5.62-2.37c13.9,0,31.05.59,38.14.59,6.21,0,24.25-.59,34.6-.59,3.55,0,5.32.59,5.32,2.37s-1.48,2.66-4.73,2.66c-2.07,0-4.43.3-7.39.89-7.1,1.18-9.17,4.73-9.76,13.6-.59,7.98-.59,17.15-.59,55.29v5.32c0,1.48.89,1.77,1.77,1.77h98.17Z"/>
    <path d="M1440.19,811.07c0-38.14,0-45.24-.3-53.22-.59-8.58-2.96-11.24-11.24-13.6-2.07-.59-6.51-.89-10.35-.89-2.66,0-4.44-.89-4.44-2.66s2.07-2.37,5.91-2.37c13.6,0,30.16.59,35.48.59,8.87,0,32.53-.59,40.51-.59,16.56,0,35.48,1.48,49.38,10.64,7.39,5.03,18.33,17.74,18.33,34.6,0,18.63-10.64,35.19-36.07,55.59,23.06,28.39,41.4,51.15,57.07,66.83,14.49,14.49,23.66,15.67,27.79,16.56,2.66.59,4.14.59,6.21.59s3.25,1.48,3.25,2.66c0,2.07-1.77,2.66-5.03,2.66h-24.84c-14.49,0-21.58-1.48-28.39-5.03-11.24-5.62-20.99-17.45-35.48-36.96-10.35-13.6-21.29-30.46-24.54-34.3-1.48-1.48-2.96-1.77-4.73-1.77l-23.36-.59c-1.18,0-2.07.59-2.07,2.07v3.55c0,23.36.29,42.88,1.48,53.52.89,7.39,2.07,12.12,10.05,13.31,3.84.59,9.46.89,12.71.89,2.07,0,3.25,1.48,3.25,2.66,0,1.77-2.07,2.66-5.32,2.66-15.08,0-36.67-.89-40.51-.89-5.03,0-21.58.89-31.93.89-3.25,0-5.03-.89-5.03-2.66,0-1.18.89-2.66,4.14-2.66,3.84,0,6.8-.3,9.17-.89,5.32-1.18,6.8-5.91,7.69-13.31,1.18-10.64,1.18-30.46,1.18-53.52v-44.35ZM1473.31,830.59c0,2.66.59,3.55,2.37,4.43,5.62,1.77,13.31,2.37,19.81,2.37,10.35,0,13.9-.89,18.33-4.14,7.98-5.62,16.85-16.56,16.85-37.26,0-35.48-24.25-44.65-39.62-44.65-6.5,0-12.71.3-15.38.89-1.77.59-2.37,1.48-2.37,3.55v74.81Z"/>
    <path d="M1031.22,865.18c-1.48,0-1.77.3-2.37,1.77l-13.9,33.71c-2.66,6.21-3.84,12.42-3.84,15.38,0,4.43,2.37,7.1,10.35,7.1h3.84c3.25,0,3.84,1.18,3.84,2.66,0,2.07-1.48,2.66-4.14,2.66-8.58,0-20.7-.89-28.98-.89-2.66,0-16.56.89-30.16.89-3.25,0-4.73-.59-4.73-2.66,0-1.48.89-2.66,2.96-2.66,2.37,0,5.32-.3,7.69-.3,11.83-1.77,16.26-9.46,21.58-22.18l68.01-158.19c2.96-7.1,5.03-10.05,7.69-10.05,3.84,0,5.03,2.37,7.69,7.98,6.21,13.9,49.68,116.8,66.23,154.94,10.05,22.77,17.45,26.02,22.18,26.91,3.84.59,6.8.89,9.76.89,2.37,0,3.55.89,3.55,2.66,0,2.07-1.48,2.66-11.24,2.66-9.17,0-28.09,0-49.97-.59-4.73-.3-7.69-.3-7.69-2.07,0-1.48.59-2.37,3.25-2.66,1.77-.3,3.55-2.66,2.37-5.62l-20.11-50.56c-.59-1.48-1.48-1.77-2.66-1.77h-61.21ZM1086.81,851.29c1.18,0,1.48-.59,1.18-1.48l-24.54-63.87c-.3-.89-.59-2.37-1.18-2.37-.89,0-1.18,1.48-1.48,2.37l-25.13,63.57c-.59,1.18,0,1.77.89,1.77h50.27Z"/>
  </g>
  <path d="M254.06,791.69c0-58.26,0-68.99-.76-81.26-.76-13.03-3.79-19.16-16.28-21.85-3.03-.77-9.47-1.15-14.77-1.15-4.17,0-6.44-.77-6.44-3.45s2.65-3.45,8.33-3.45c20.07,0,43.93,1.15,51.88,1.15,12.88,0,41.66-1.15,53.4-1.15,23.86,0,49.23,2.3,69.68,16.48,10.6,7.28,25.75,26.83,25.75,52.51,0,28.36-11.74,54.43-49.99,85.86,33.7,42.93,75.62,97.57,97.96,121.33,21.21,22.23,36.73,24.92,42.41,26.06,4.17.77,7.57,1.15,10.6,1.15s4.54,1.15,4.54,3.07c0,3.07-2.65,3.83-7.19,3.83h-35.98c-21.21,0-30.67-1.92-40.52-7.28-16.28-8.82-46.46-47.36-67.67-76.87-15.15-21.08-32.57-47.15-37.49-52.89-1.89-2.3-4.17-2.68-6.82-2.68l-32.95-.77c-1.89,0-3.03.77-3.03,3.07v5.37c0,35.65,0,45.7,1.89,61.8,1.14,11.12,3.41,19.55,14.77,21.08,5.68.77,14.01,1.53,18.56,1.53,3.03,0,4.54,1.15,4.54,3.07,0,2.68-2.65,3.83-7.57,3.83-21.96,0-49.99-1.15-55.67-1.15-7.2,0-31.05,1.15-46.2,1.15-4.92,0-7.57-1.15-7.57-3.83,0-1.92,1.51-3.07,6.06-3.07,5.68,0,10.22-.77,13.63-1.53,7.57-1.53,9.47-9.96,10.98-21.08,1.89-16.1,1.89-26.15,1.89-61.42v-67.46ZM298.75,821.98c0,4.22.76,5.75,3.41,6.9,7.95,2.68,19.31,3.83,28.78,3.83,15.15,0,20.07-1.53,26.89-6.52,11.36-8.43,22.34-26.06,22.34-57.5,0-54.43-35.6-70.14-57.94-70.14-9.47,0-16.28.38-20.07,1.53-2.65.77-3.41,2.3-3.41,5.37v116.52Z"/>
  <rect class="cls-2" x="959.53" y="968.66" width="663.82" height="20.13"/>
  <g>
    <text class="cls-1" transform="translate(664.39 1079.47) scale(1.07 1)"><tspan class="cls-8" x="0" y="0">DIE</tspan><tspan class="cls-7" x="120.91" y="0"> </tspan><tspan class="cls-8" x="145.27" y="0">KAFFEE</tspan><tspan class="cls-6" x="405.61" y="0"> </tspan><tspan class="cls-5" x="428.78" y="0">RÖSTEREI</tspan><tspan class="cls-3" x="769.16" y="0"> </tspan><tspan class="cls-9" x="795.88" y="0">IM</tspan><tspan class="cls-4" x="884.47" y="0"> </tspan><tspan class="cls-5" x="910.01" y="0">AHRTAL</tspan></text>
    <g>
      <rect class="cls-2" x="1972.8" y="1048.61" width="23.88" height="18.35"/>
      <rect class="cls-2" x="586.21" y="1048.61" width="23.88" height="18.35"/>
    </g>
  </g>
</svg>