<?xml version="1.0" encoding="UTF-8"?>
<svg id="Ebene_1" data-name="Ebene 1" xmlns="http://www.w3.org/2000/svg" viewBox="0 0 3000 3000">
  <path d="M1924.38,716.55l-40.41,96.99c326.1,146.69,553.22,474.46,553.22,855.21,0,8.18-.12,16.3-.31,24.36h-453.26s2.97-2.48,8.49-3.84c5.45-1.36,214.86-39.48,214.86-39.48v-414.1c-30.06-39.91-126.86-93.52-249.87-109.94-123.01-16.36-218.7,18.78-236.05,27.39-17.29,8.55-26.4,9.98-26.4,9.98,0,0,4.65-3.97,24.85-29.99,20.26-25.97,58.25-44.74,58.25-44.74v-400.9s4.9,8.24,7.13,12.89c2.17,4.65,23.49,73.25,23.49,73.25l29.19-91.35,8.74-27.33h-692.6l8.74,27.33,29.19,91.35s21.32-68.6,23.49-73.25c2.23-4.65,7.13-12.89,7.13-12.89v400.9s37.99,18.78,58.25,44.74c20.2,26.03,24.85,29.99,24.85,29.99,0,0-9.11-1.43-26.4-9.98-17.35-8.61-113.04-43.75-236.05-27.39-123.01,16.42-219.81,70.03-249.87,109.94v414.1s209.4,38.11,214.86,39.48c5.51,1.36,8.49,3.84,8.49,3.84h-453.26c-.19-8.06-.31-16.17-.31-24.36,0-380.75,227.13-708.52,553.22-855.21l-40.41-96.99c-363.96,162.8-618.17,528.37-618.17,952.2,0,574.91,467.7,1042.61,1042.55,1042.61s1042.55-467.7,1042.55-1042.61c0-423.83-254.21-789.4-618.17-952.2ZM1978.55,1326.54h44.56v113.84h-44.56v-113.84ZM1599.47,745.18h57.14v97.42h-57.14v-97.42ZM1591.28,1240.4h61.1v127.23h-61.1v-127.23ZM1570.52,1560.86h30.06v96.43h-30.06v-96.43ZM1487.79,754.66h24.42v73.13h-24.42v-73.13ZM1473.23,1005.22h53.54v127.1h-53.54v-127.1ZM1429.48,1560.86v96.43h-30.06v-96.43h30.06ZM1408.72,1367.63h-61.1v-127.23h61.1v127.23ZM1343.4,745.18h57.14v97.42h-57.14v-97.42ZM976.9,1440.38v-113.84h44.56v113.84h-44.56ZM1500,2606.01c-277.08,0-526.08-120.22-697.62-311.41,0,0,357.52-39.66,562.02-142.47v-157.47c0-16.92,2.17-33.65,6.45-50.01,12.95-49.58,48.21-143.59,129.15-143.59s116.2,94.01,129.15,143.59c4.28,16.36,6.45,33.09,6.45,50.01v157.47c204.51,102.81,562.02,142.47,562.02,142.47-171.54,191.18-420.54,311.41-697.62,311.41Z"/>
  <polygon points="2366.68 549.23 2366.68 591.55 2030.36 591.55 1816.18 437 1601.14 437 1601.14 453.48 1749.5 611.39 1250.5 611.39 1398.86 453.48 1398.86 437 1210.16 437 1210.16 393.86 1416.21 393.86 1416.21 344.22 1398.86 344.22 1377.92 291.86 1622.08 291.86 1601.14 344.22 1583.79 344.22 1583.79 393.86 1834.9 393.86 2052.23 549.23 2366.68 549.23"/>
  <path d="M2281.09,372.36c0,6.32-.68,12.46-2.05,18.34l-26.65,119.17h-110.06l-26.65-119.17c-1.36-5.89-2.05-12.02-2.05-18.34,0-46.29,37.49-83.72,83.72-83.72s83.72,37.43,83.72,83.72Z"/>
</svg>