<svg xmlns="http://www.w3.org/2000/svg" width="329" height="363" viewBox="0 0 329 363" version="1.1">
    <path d="M 136.771 39.716 C 120.996 48.905, 108.182 56.514, 108.295 56.625 C 108.408 56.736, 112.783 56.970, 118.018 57.146 L 127.536 57.465 146.859 46.160 C 157.487 39.943, 166.704 35.068, 167.341 35.327 C 167.978 35.587, 177.050 40.802, 187.500 46.916 L 206.500 58.034 215.500 57.381 C 220.450 57.022, 224.592 56.659, 224.705 56.575 C 225.104 56.278, 169.472 24.262, 167.476 23.640 C 165.994 23.178, 157.778 27.479, 136.771 39.716 M 68.328 67.930 C 60.968 71.286, 60.567 72.634, 60 95.952 L 59.500 116.500 53.776 117.010 C 44.843 117.805, 44.500 118.470, 44.500 135.008 C 44.500 148.015, 44.646 149.090, 46.691 151.135 C 48.251 152.696, 50.480 153.458, 54.441 153.787 L 60 154.248 60 196.124 L 60 238 53.622 238 C 49.394 238, 46.856 238.469, 46.090 239.392 C 45.321 240.318, 45.029 244.754, 45.217 252.642 L 45.500 264.500 77.794 264.764 L 110.088 265.028 109.637 270.849 C 108.704 282.880, 107.166 281.377, 137.513 298.108 C 152.356 306.292, 165.143 312.990, 165.930 312.993 C 167.497 313.001, 217.426 285.604, 220.250 283.188 C 221.657 281.983, 222 280.055, 222 273.345 L 222 265 254.800 265 C 278.978 265, 287.915 264.685, 288.800 263.800 C 289.677 262.923, 290 254.996, 290 234.382 C 290 218.862, 289.727 205.452, 289.393 204.582 C 288.906 203.313, 287.124 203, 280.393 203 L 272 203 272 178 L 272 153 277.427 153 C 282.100 153, 283.143 152.633, 284.927 150.365 C 286.781 148.009, 287 146.367, 287 134.820 C 287 122.445, 286.898 121.807, 284.545 119.455 C 282.595 117.505, 281.065 117, 277.103 117 L 272.114 117 271.807 96.570 C 271.471 74.182, 271.311 73.562, 264.615 68.562 C 261.877 66.517, 261.056 66.498, 167.177 66.264 C 75.975 66.036, 72.347 66.098, 68.328 67.930 M 70.056 75.944 C 68.986 77.014, 67.823 79.426, 67.471 81.305 C 67.118 83.184, 67.072 105.596, 67.367 131.110 C 67.663 156.625, 67.927 191.113, 67.953 207.750 L 68 238 71.500 238 L 75 238 75 163.547 C 75 107.953, 75.303 88.430, 76.195 86.472 C 78.772 80.815, 75.719 81, 166.527 81 L 250.154 81 253.077 83.923 L 256 86.846 256.215 124.173 C 256.334 144.703, 256.446 170.725, 256.465 182 L 256.500 202.500 260.250 202.810 L 264 203.121 264 141.015 L 264 78.909 261.545 76.455 L 259.091 74 165.545 74 C 74.228 74, 71.954 74.046, 70.056 75.944 M 36.500 96.603 C 29.350 100.770, 22.713 104.883, 21.750 105.744 C 20.112 107.210, 20 112.283, 20 185.221 C 20 234.869, 20.360 263.804, 20.993 264.986 C 21.539 266.007, 26.151 269.217, 31.243 272.121 C 43.297 278.996, 74.044 297.050, 122.673 325.807 C 144.218 338.548, 162.981 349.490, 164.367 350.121 C 167.234 351.428, 160.364 355.229, 240.500 307.996 C 266.350 292.759, 292.450 277.468, 298.500 274.016 C 304.550 270.563, 310.287 267.052, 311.250 266.214 C 312.889 264.787, 313 259.717, 313 186.456 C 313 113.363, 312.885 108.092, 311.250 106.256 C 309.050 103.785, 283.021 88.646, 282.267 89.400 C 281.961 89.706, 281.502 92.124, 281.248 94.774 C 280.798 99.451, 280.898 99.666, 284.642 102.125 C 286.764 103.518, 291.538 106.349, 295.250 108.415 L 302 112.172 302 185.902 L 302 259.632 297.750 261.997 C 295.413 263.298, 285.175 269.294, 275 275.322 C 200.108 319.692, 166.579 339.052, 165.409 338.603 C 164.661 338.317, 139.401 323.510, 109.275 305.700 C 79.149 287.891, 49.213 270.263, 42.750 266.527 L 31 259.736 31 185.961 L 31 112.186 41 106.401 L 51 100.617 51 94.808 C 51 91.614, 50.663 89.006, 50.250 89.014 C 49.837 89.022, 43.650 92.437, 36.500 96.603 M 83.667 89.667 C 83.300 90.033, 83 97.908, 83 107.167 L 83 124 113 124 C 141.493 124, 143 123.907, 143 122.155 C 143 119.572, 146.157 117, 149.329 117 C 151.822 117, 152 116.704, 152 112.571 C 152 107.189, 153.899 105, 158.571 105 L 162 105 162 97 L 162 89 123.167 89 C 101.808 89, 84.033 89.300, 83.667 89.667 M 169.172 96.735 L 169.500 104.469 173.034 105.042 C 178.364 105.906, 179 106.654, 179 112.059 C 179 116.534, 179.215 117, 181.277 117 C 184.404 117, 188 119.705, 188 122.057 C 188 123.938, 188.957 124, 217.869 124 L 247.738 124 248.358 120.250 C 249.159 115.408, 249.185 92.646, 248.393 90.582 C 247.854 89.176, 243.385 89, 208.315 89 L 168.845 89 169.172 96.735 M 159.667 112.667 C 159.300 113.033, 159 114.158, 159 115.167 C 159 116.756, 159.864 117, 165.500 117 C 171.767 117, 172 116.910, 172 114.500 C 172 112.119, 171.722 112, 166.167 112 C 162.958 112, 160.033 112.300, 159.667 112.667 M 272 135 L 272 146 275.500 146 L 279 146 279 135.617 C 279 125.694, 278.900 125.207, 276.750 124.630 C 272.027 123.364, 272 123.422, 272 135 M 52 135.560 L 52 146.121 55.750 145.810 L 59.500 145.500 59.785 135.250 L 60.070 125 56.035 125 L 52 125 52 135.560 M 151 137.500 L 151 150 165.500 150 L 180 150 180 137.500 L 180 125 165.500 125 L 151 125 151 137.500 M 83 134.500 L 83 137 113 137 L 143 137 143 134.500 L 143 132 113 132 L 83 132 83 134.500 M 188 134.500 L 188 137 218 137 L 248 137 248 134.500 L 248 132 218 132 L 188 132 188 134.500 M 83 191.500 L 83 238 86.500 238 L 90 238 90 233.200 C 90 230.560, 90.540 227.860, 91.200 227.200 C 91.937 226.463, 95.542 226, 100.538 226 L 108.676 226 109.588 220.250 L 110.500 214.500 137.500 199.753 C 152.350 191.643, 165.151 185.005, 165.947 185.003 C 167.412 185, 214.187 210.614, 219.250 214.193 C 221.544 215.814, 222 216.871, 222 220.568 L 222 225 227.750 224.993 L 233.500 224.986 233.836 214.758 C 234.021 209.133, 234.385 204.187, 234.645 203.766 C 234.905 203.344, 237.966 203, 241.447 203 L 247.775 203 248.500 188.992 C 248.899 181.288, 248.899 168.238, 248.500 159.992 L 247.774 145 217.887 145 L 188 145 188 149.943 C 188 153.918, 187.564 155.192, 185.777 156.443 C 184.555 157.299, 182.831 158, 181.946 158 C 181.061 158, 177.305 161.375, 173.598 165.500 C 169.892 169.625, 166.266 173, 165.540 173 C 164.815 173, 161.359 169.643, 157.861 165.541 C 154.218 161.269, 150.432 157.825, 149 157.481 C 144.193 156.327, 143.510 155.464, 143.198 150.147 L 142.895 145 112.948 145 L 83 145 83 191.500 M 162.647 159.583 C 164.540 162.473, 166.115 162.635, 168.345 160.171 C 170.769 157.492, 170.464 157.167, 165.532 157.167 L 161.063 157.167 162.647 159.583 M 144.644 204.924 C 133.723 210.913, 124.355 216.245, 123.826 216.774 C 123.211 217.389, 130.622 221.949, 144.393 229.430 L 165.920 241.125 187.590 229.394 C 207.332 218.706, 209.092 217.540, 207.380 216.283 C 203.542 213.467, 167.302 194.001, 165.927 194.017 C 165.142 194.027, 155.565 198.935, 144.644 204.924 M 241 228.500 L 241 246 231.500 246 L 222 246 222 251.500 L 222 257 252 257 L 282 257 282 234 L 282 211 261.500 211 L 241 211 241 228.500 M 248.200 217.200 C 247.460 217.940, 247 221.570, 247 226.665 C 247 233.813, 247.261 235.070, 248.934 235.965 C 250.993 237.066, 271.754 237.415, 274.418 236.393 C 275.693 235.904, 276 234.097, 276 227.093 C 276 221.665, 275.549 217.949, 274.800 217.200 C 273.999 216.399, 269.578 216, 261.500 216 C 253.422 216, 249.001 216.399, 248.200 217.200 M 117 242.927 L 117 261.854 138.682 273.677 C 150.608 280.180, 160.743 285.653, 161.204 285.841 C 161.666 286.028, 161.921 277.544, 161.772 266.988 L 161.500 247.795 140 235.931 C 128.175 229.407, 118.162 224.053, 117.750 224.034 C 117.338 224.015, 117 232.517, 117 242.927 M 254.998 226.750 L 254.995 229.500 261.998 229.168 C 268.645 228.853, 269 228.713, 269 226.418 C 269 224.091, 268.737 224, 262 224 C 255.031 224, 255 224.012, 254.998 226.750 M 191 236.478 C 171.613 247.136, 170.483 247.917, 170.187 250.874 C 170.014 252.593, 170.239 253.982, 170.687 253.959 C 171.134 253.937, 180.950 248.813, 192.500 242.572 C 212.399 231.821, 213.516 231.063, 213.813 228.113 C 214.025 226.014, 213.699 225.034, 212.813 225.104 C 212.091 225.162, 202.275 230.280, 191 236.478 M 222 235.500 C 222 237.864, 222.300 238, 227.500 238 C 232.700 238, 233 237.864, 233 235.500 C 233 233.136, 232.700 233, 227.500 233 C 222.300 233, 222 233.136, 222 235.500 M 98 236 C 98 237.758, 98.667 238, 103.500 238 C 108.333 238, 109 237.758, 109 236 C 109 234.242, 108.333 234, 103.500 234 C 98.667 234, 98 234.242, 98 236 M 191.766 251.767 C 170.298 263.356, 170.031 263.540, 170.016 266.770 L 170 270.041 174.250 267.903 C 176.588 266.727, 186.488 261.497, 196.250 256.280 C 213.907 246.846, 214 246.779, 214 243.398 C 214 241.529, 213.887 240.008, 213.750 240.017 C 213.613 240.027, 203.720 245.315, 191.766 251.767 M 250.714 243.619 C 250.321 244.012, 250 245.608, 250 247.167 C 250 249.813, 250.268 250, 254.063 250 C 258.045 250, 258.120 249.935, 257.813 246.750 C 257.543 243.946, 257.084 243.459, 254.464 243.203 C 252.794 243.039, 251.107 243.227, 250.714 243.619 M 266 246.500 C 266 249.833, 266.167 250, 269.500 250 C 272.833 250, 273 249.833, 273 246.500 C 273 243.167, 272.833 243, 269.500 243 C 266.167 243, 266 243.167, 266 246.500 M 53 251.500 L 53 257 81 257 L 109 257 109 251.500 L 109 246 81 246 L 53 246 53 251.500 M 204.500 260.590 C 200.100 263.106, 190.537 268.314, 183.250 272.163 C 170.100 279.109, 170 279.188, 170 282.668 L 170 286.174 177.750 281.987 C 182.012 279.685, 191.912 274.358, 199.750 270.150 C 213.591 262.720, 214 262.407, 214 259.250 C 214 257.462, 213.662 256.003, 213.250 256.007 C 212.838 256.012, 208.900 258.074, 204.500 260.590 M 117 274.396 C 117 277.786, 117.038 277.813, 138.934 289.896 C 150.997 296.553, 161.122 302, 161.434 302 C 161.745 302, 162 300.501, 162 298.669 C 162 295.405, 161.695 295.171, 146.750 286.997 C 138.363 282.409, 128.496 276.933, 124.826 274.828 C 121.155 272.722, 117.892 271, 117.576 271 C 117.259 271, 117 272.528, 117 274.396 M 191.500 283.427 L 170.500 294.845 170.183 298.536 L 169.866 302.227 180.183 296.691 C 210.441 280.456, 213.479 278.510, 213.813 275.148 C 213.986 273.417, 213.761 272.002, 213.313 272.005 C 212.866 272.007, 203.050 277.147, 191.500 283.427"
          stroke="none" fill="#4ade80" fill-rule="evenodd"/>
    <path d="M 0 181.503 L 0 363.006 164.750 362.753 L 329.500 362.500 329.753 181.250 L 330.005 -0 165.003 -0 L 0 0 0 181.503 M 0.489 182 C 0.489 281.825, 0.607 322.663, 0.750 272.750 C 0.893 222.838, 0.893 141.163, 0.750 91.250 C 0.607 41.338, 0.489 82.175, 0.489 182 M 136.771 39.716 C 120.996 48.905, 108.182 56.514, 108.295 56.625 C 108.408 56.736, 112.783 56.970, 118.018 57.146 L 127.536 57.465 146.859 46.160 C 157.487 39.943, 166.704 35.068, 167.341 35.327 C 167.978 35.587, 177.050 40.802, 187.500 46.916 L 206.500 58.034 215.500 57.381 C 220.450 57.022, 224.592 56.659, 224.705 56.575 C 225.104 56.278, 169.472 24.262, 167.476 23.640 C 165.994 23.178, 157.778 27.479, 136.771 39.716 M 68.328 67.930 C 60.968 71.286, 60.567 72.634, 60 95.952 L 59.500 116.500 53.776 117.010 C 44.843 117.805, 44.500 118.470, 44.500 135.008 C 44.500 148.015, 44.646 149.090, 46.691 151.135 C 48.251 152.696, 50.480 153.458, 54.441 153.787 L 60 154.248 60 196.124 L 60 238 53.622 238 C 49.394 238, 46.856 238.469, 46.090 239.392 C 45.321 240.318, 45.029 244.754, 45.217 252.642 L 45.500 264.500 77.794 264.764 L 110.088 265.028 109.637 270.849 C 108.704 282.880, 107.166 281.377, 137.513 298.108 C 152.356 306.292, 165.143 312.990, 165.930 312.993 C 167.497 313.001, 217.426 285.604, 220.250 283.188 C 221.657 281.983, 222 280.055, 222 273.345 L 222 265 254.800 265 C 278.978 265, 287.915 264.685, 288.800 263.800 C 289.677 262.923, 290 254.996, 290 234.382 C 290 218.862, 289.727 205.452, 289.393 204.582 C 288.906 203.313, 287.124 203, 280.393 203 L 272 203 272 178 L 272 153 277.427 153 C 282.100 153, 283.143 152.633, 284.927 150.365 C 286.781 148.009, 287 146.367, 287 134.820 C 287 122.445, 286.898 121.807, 284.545 119.455 C 282.595 117.505, 281.065 117, 277.103 117 L 272.114 117 271.807 96.570 C 271.471 74.182, 271.311 73.562, 264.615 68.562 C 261.877 66.517, 261.056 66.498, 167.177 66.264 C 75.975 66.036, 72.347 66.098, 68.328 67.930 M 70.056 75.944 C 68.986 77.014, 67.823 79.426, 67.471 81.305 C 67.118 83.184, 67.072 105.596, 67.367 131.110 C 67.663 156.625, 67.927 191.113, 67.953 207.750 L 68 238 71.500 238 L 75 238 75 163.547 C 75 107.953, 75.303 88.430, 76.195 86.472 C 78.772 80.815, 75.719 81, 166.527 81 L 250.154 81 253.077 83.923 L 256 86.846 256.215 124.173 C 256.334 144.703, 256.446 170.725, 256.465 182 L 256.500 202.500 260.250 202.810 L 264 203.121 264 141.015 L 264 78.909 261.545 76.455 L 259.091 74 165.545 74 C 74.228 74, 71.954 74.046, 70.056 75.944 M 36.500 96.603 C 29.350 100.770, 22.713 104.883, 21.750 105.744 C 20.112 107.210, 20 112.283, 20 185.221 C 20 234.869, 20.360 263.804, 20.993 264.986 C 21.539 266.007, 26.151 269.217, 31.243 272.121 C 43.297 278.996, 74.044 297.050, 122.673 325.807 C 144.218 338.548, 162.981 349.490, 164.367 350.121 C 167.234 351.428, 160.364 355.229, 240.500 307.996 C 266.350 292.759, 292.450 277.468, 298.500 274.016 C 304.550 270.563, 310.287 267.052, 311.250 266.214 C 312.889 264.787, 313 259.717, 313 186.456 C 313 113.363, 312.885 108.092, 311.250 106.256 C 309.050 103.785, 283.021 88.646, 282.267 89.400 C 281.961 89.706, 281.502 92.124, 281.248 94.774 C 280.798 99.451, 280.898 99.666, 284.642 102.125 C 286.764 103.518, 291.538 106.349, 295.250 108.415 L 302 112.172 302 185.902 L 302 259.632 297.750 261.997 C 295.413 263.298, 285.175 269.294, 275 275.322 C 200.108 319.692, 166.579 339.052, 165.409 338.603 C 164.661 338.317, 139.401 323.510, 109.275 305.700 C 79.149 287.891, 49.213 270.263, 42.750 266.527 L 31 259.736 31 185.961 L 31 112.186 41 106.401 L 51 100.617 51 94.808 C 51 91.614, 50.663 89.006, 50.250 89.014 C 49.837 89.022, 43.650 92.437, 36.500 96.603 M 83.667 89.667 C 83.300 90.033, 83 97.908, 83 107.167 L 83 124 113 124 C 141.493 124, 143 123.907, 143 122.155 C 143 119.572, 146.157 117, 149.329 117 C 151.822 117, 152 116.704, 152 112.571 C 152 107.189, 153.899 105, 158.571 105 L 162 105 162 97 L 162 89 123.167 89 C 101.808 89, 84.033 89.300, 83.667 89.667 M 169.172 96.735 L 169.500 104.469 173.034 105.042 C 178.364 105.906, 179 106.654, 179 112.059 C 179 116.534, 179.215 117, 181.277 117 C 184.404 117, 188 119.705, 188 122.057 C 188 123.938, 188.957 124, 217.869 124 L 247.738 124 248.358 120.250 C 249.159 115.408, 249.185 92.646, 248.393 90.582 C 247.854 89.176, 243.385 89, 208.315 89 L 168.845 89 169.172 96.735 M 159.667 112.667 C 159.300 113.033, 159 114.158, 159 115.167 C 159 116.756, 159.864 117, 165.500 117 C 171.767 117, 172 116.910, 172 114.500 C 172 112.119, 171.722 112, 166.167 112 C 162.958 112, 160.033 112.300, 159.667 112.667 M 272 135 L 272 146 275.500 146 L 279 146 279 135.617 C 279 125.694, 278.900 125.207, 276.750 124.630 C 272.027 123.364, 272 123.422, 272 135 M 52 135.560 L 52 146.121 55.750 145.810 L 59.500 145.500 59.785 135.250 L 60.070 125 56.035 125 L 52 125 52 135.560 M 151 137.500 L 151 150 165.500 150 L 180 150 180 137.500 L 180 125 165.500 125 L 151 125 151 137.500 M 83 134.500 L 83 137 113 137 L 143 137 143 134.500 L 143 132 113 132 L 83 132 83 134.500 M 188 134.500 L 188 137 218 137 L 248 137 248 134.500 L 248 132 218 132 L 188 132 188 134.500 M 83 191.500 L 83 238 86.500 238 L 90 238 90 233.200 C 90 230.560, 90.540 227.860, 91.200 227.200 C 91.937 226.463, 95.542 226, 100.538 226 L 108.676 226 109.588 220.250 L 110.500 214.500 137.500 199.753 C 152.350 191.643, 165.151 185.005, 165.947 185.003 C 167.412 185, 214.187 210.614, 219.250 214.193 C 221.544 215.814, 222 216.871, 222 220.568 L 222 225 227.750 224.993 L 233.500 224.986 233.836 214.758 C 234.021 209.133, 234.385 204.187, 234.645 203.766 C 234.905 203.344, 237.966 203, 241.447 203 L 247.775 203 248.500 188.992 C 248.899 181.288, 248.899 168.238, 248.500 159.992 L 247.774 145 217.887 145 L 188 145 188 149.943 C 188 153.918, 187.564 155.192, 185.777 156.443 C 184.555 157.299, 182.831 158, 181.946 158 C 181.061 158, 177.305 161.375, 173.598 165.500 C 169.892 169.625, 166.266 173, 165.540 173 C 164.815 173, 161.359 169.643, 157.861 165.541 C 154.218 161.269, 150.432 157.825, 149 157.481 C 144.193 156.327, 143.510 155.464, 143.198 150.147 L 142.895 145 112.948 145 L 83 145 83 191.500 M 162.647 159.583 C 164.540 162.473, 166.115 162.635, 168.345 160.171 C 170.769 157.492, 170.464 157.167, 165.532 157.167 L 161.063 157.167 162.647 159.583 M 144.644 204.924 C 133.723 210.913, 124.355 216.245, 123.826 216.774 C 123.211 217.389, 130.622 221.949, 144.393 229.430 L 165.920 241.125 187.590 229.394 C 207.332 218.706, 209.092 217.540, 207.380 216.283 C 203.542 213.467, 167.302 194.001, 165.927 194.017 C 165.142 194.027, 155.565 198.935, 144.644 204.924 M 241 228.500 L 241 246 231.500 246 L 222 246 222 251.500 L 222 257 252 257 L 282 257 282 234 L 282 211 261.500 211 L 241 211 241 228.500 M 248.200 217.200 C 247.460 217.940, 247 221.570, 247 226.665 C 247 233.813, 247.261 235.070, 248.934 235.965 C 250.993 237.066, 271.754 237.415, 274.418 236.393 C 275.693 235.904, 276 234.097, 276 227.093 C 276 221.665, 275.549 217.949, 274.800 217.200 C 273.999 216.399, 269.578 216, 261.500 216 C 253.422 216, 249.001 216.399, 248.200 217.200 M 117 242.927 L 117 261.854 138.682 273.677 C 150.608 280.180, 160.743 285.653, 161.204 285.841 C 161.666 286.028, 161.921 277.544, 161.772 266.988 L 161.500 247.795 140 235.931 C 128.175 229.407, 118.162 224.053, 117.750 224.034 C 117.338 224.015, 117 232.517, 117 242.927 M 254.998 226.750 L 254.995 229.500 261.998 229.168 C 268.645 228.853, 269 228.713, 269 226.418 C 269 224.091, 268.737 224, 262 224 C 255.031 224, 255 224.012, 254.998 226.750 M 191 236.478 C 171.613 247.136, 170.483 247.917, 170.187 250.874 C 170.014 252.593, 170.239 253.982, 170.687 253.959 C 171.134 253.937, 180.950 248.813, 192.500 242.572 C 212.399 231.821, 213.516 231.063, 213.813 228.113 C 214.025 226.014, 213.699 225.034, 212.813 225.104 C 212.091 225.162, 202.275 230.280, 191 236.478 M 222 235.500 C 222 237.864, 222.300 238, 227.500 238 C 232.700 238, 233 237.864, 233 235.500 C 233 233.136, 232.700 233, 227.500 233 C 222.300 233, 222 233.136, 222 235.500 M 98 236 C 98 237.758, 98.667 238, 103.500 238 C 108.333 238, 109 237.758, 109 236 C 109 234.242, 108.333 234, 103.500 234 C 98.667 234, 98 234.242, 98 236 M 191.766 251.767 C 170.298 263.356, 170.031 263.540, 170.016 266.770 L 170 270.041 174.250 267.903 C 176.588 266.727, 186.488 261.497, 196.250 256.280 C 213.907 246.846, 214 246.779, 214 243.398 C 214 241.529, 213.887 240.008, 213.750 240.017 C 213.613 240.027, 203.720 245.315, 191.766 251.767 M 250.714 243.619 C 250.321 244.012, 250 245.608, 250 247.167 C 250 249.813, 250.268 250, 254.063 250 C 258.045 250, 258.120 249.935, 257.813 246.750 C 257.543 243.946, 257.084 243.459, 254.464 243.203 C 252.794 243.039, 251.107 243.227, 250.714 243.619 M 266 246.500 C 266 249.833, 266.167 250, 269.500 250 C 272.833 250, 273 249.833, 273 246.500 C 273 243.167, 272.833 243, 269.500 243 C 266.167 243, 266 243.167, 266 246.500 M 53 251.500 L 53 257 81 257 L 109 257 109 251.500 L 109 246 81 246 L 53 246 53 251.500 M 204.500 260.590 C 200.100 263.106, 190.537 268.314, 183.250 272.163 C 170.100 279.109, 170 279.188, 170 282.668 L 170 286.174 177.750 281.987 C 182.012 279.685, 191.912 274.358, 199.750 270.150 C 213.591 262.720, 214 262.407, 214 259.250 C 214 257.462, 213.662 256.003, 213.250 256.007 C 212.838 256.012, 208.900 258.074, 204.500 260.590 M 117 274.396 C 117 277.786, 117.038 277.813, 138.934 289.896 C 150.997 296.553, 161.122 302, 161.434 302 C 161.745 302, 162 300.501, 162 298.669 C 162 295.405, 161.695 295.171, 146.750 286.997 C 138.363 282.409, 128.496 276.933, 124.826 274.828 C 121.155 272.722, 117.892 271, 117.576 271 C 117.259 271, 117 272.528, 117 274.396 M 191.500 283.427 L 170.500 294.845 170.183 298.536 L 169.866 302.227 180.183 296.691 C 210.441 280.456, 213.479 278.510, 213.813 275.148 C 213.986 273.417, 213.761 272.002, 213.313 272.005 C 212.866 272.007, 203.050 277.147, 191.500 283.427"
          stroke="none" fill="transparent" fill-rule="evenodd"/>
</svg>